<svg xmlns="http://www.w3.org/2000/svg" viewBox="0 0 1024 1024" role="img" aria-labelledby="title desc">
  <title id="title">AsiBackbone governance spine icon</title>
  <desc id="desc">A text-free icon showing a protected governance spine with policy nodes, audit checkpoints, and a constrained execution check.</desc>
  <rect x="51" y="51" width="922" height="922" rx="205" fill="#0A1220"/>
  <path d="M512 174 799 287 768 563 676 737 512 850 348 737 256 563 225 287Z" fill="#0F172A" fill-opacity="0.92" stroke="#60A5FA" stroke-opacity="0.5" stroke-width="20"/>
  <path d="M512 270V746" stroke="#38BDF8" stroke-width="36" stroke-linecap="round"/>
  <g fill="#0F172A" stroke="#7DD3FC" stroke-width="14">
    <circle cx="512" cy="287" r="43"/>
    <circle cx="512" cy="399" r="51"/>
    <circle cx="512" cy="512" r="62"/>
    <circle cx="512" cy="625" r="51"/>
    <circle cx="512" cy="737" r="43"/>
  </g>
  <g stroke="#7DD3FC" stroke-width="20" stroke-linecap="round" opacity="0.86">
    <path d="M512 399H389"/>
    <path d="M512 399H635"/>
    <path d="M512 512H374"/>
    <path d="M512 512H650"/>
    <path d="M512 625H389"/>
    <path d="M512 625H635"/>
  </g>
  <g fill="#0F172A" stroke="#38BDF8" stroke-width="12">
    <circle cx="389" cy="399" r="27"/>
    <circle cx="635" cy="399" r="27"/>
    <circle cx="374" cy="512" r="27"/>
    <circle cx="650" cy="512" r="27"/>
    <circle cx="389" cy="625" r="27"/>
    <circle cx="635" cy="625" r="27"/>
  </g>
  <path d="M441 520 501 580 625 440" fill="none" stroke="#22C55E" stroke-width="44" stroke-linecap="round" stroke-linejoin="round"/>
  <g stroke="#E2E8F0" stroke-opacity="0.18" stroke-width="20" stroke-linecap="round">
    <path d="M143 384H274"/><path d="M750 384H881"/>
    <path d="M143 512H250"/><path d="M774 512H881"/>
    <path d="M143 640H274"/><path d="M750 640H881"/>
  </g>
</svg>
